<?xml version="1.0" encoding="UTF-8" standalone="no"?>
<!DOCTYPE svg PUBLIC "-//W3C//DTD SVG 1.1//EN"
 "http://www.w3.org/Graphics/SVG/1.1/DTD/svg11.dtd">
<!-- Generated by graphviz version 2.36.0 (20140111.2315)
 -->
<!-- Title: %3 Pages: 1 -->
<svg width="492pt" height="98pt"
 viewBox="0.00 0.00 492.00 98.00" xmlns="http://www.w3.org/2000/svg" xmlns:xlink="http://www.w3.org/1999/xlink">
<g id="graph0" class="graph" transform="scale(1 1) rotate(0) translate(4 94)">
<title>%3</title>
<polygon fill="white" stroke="none" points="-4,4 -4,-94 488,-94 488,4 -4,4"/>
<!-- q -->
<g id="node1" class="node"><title>q</title>
<polygon fill="none" stroke="lightblue" points="354,-63 226,-63 226,-27 354,-27 354,-63"/>
<text text-anchor="middle" x="290" y="-41.3" font-family="Times,serif" font-size="14.00">Task queue (Celery)</text>
</g>
<!-- xtas worker 1 -->
<g id="node4" class="node"><title>xtas worker 1</title>
<polygon fill="none" stroke="lightblue" points="482.5,-90 391.5,-90 391.5,-54 482.5,-54 482.5,-90"/>
<text text-anchor="middle" x="437" y="-68.3" font-family="Times,serif" font-size="14.00">xtas worker 1</text>
</g>
<!-- q&#45;&gt;xtas worker 1 -->
<g id="edge3" class="edge"><title>q&#45;&gt;xtas worker 1</title>
<path fill="none" stroke="black" d="M354.177,-56.764C363.271,-58.4574 372.564,-60.1877 381.47,-61.8462"/>
<polygon fill="black" stroke="black" points="380.859,-65.2924 391.331,-63.6823 382.14,-58.4107 380.859,-65.2924"/>
</g>
<!-- xtas worker N -->
<g id="node5" class="node"><title>xtas worker N</title>
<polygon fill="none" stroke="lightblue" points="484,-36 390,-36 390,-0 484,-0 484,-36"/>
<text text-anchor="middle" x="437" y="-14.3" font-family="Times,serif" font-size="14.00">xtas worker N</text>
</g>
<!-- q&#45;&gt;xtas worker N -->
<g id="edge4" class="edge"><title>q&#45;&gt;xtas worker N</title>
<path fill="none" stroke="black" d="M354.177,-33.236C362.641,-31.6599 371.278,-30.0517 379.615,-28.4993"/>
<polygon fill="black" stroke="black" points="380.414,-31.9108 389.604,-26.6393 379.132,-25.0291 380.414,-31.9108"/>
</g>
<!-- Python script -->
<g id="node2" class="node"><title>Python script</title>
<polygon fill="none" stroke="lightblue" points="89.5,-63 0.5,-63 0.5,-27 89.5,-27 89.5,-63"/>
<text text-anchor="middle" x="45" y="-41.3" font-family="Times,serif" font-size="14.00">Python script</text>
</g>
<!-- xtas API -->
<g id="node3" class="node"><title>xtas API</title>
<polygon fill="none" stroke="lightblue" points="190,-63 126,-63 126,-27 190,-27 190,-63"/>
<text text-anchor="middle" x="158" y="-41.3" font-family="Times,serif" font-size="14.00">xtas API</text>
</g>
<!-- Python script&#45;&gt;xtas API -->
<g id="edge1" class="edge"><title>Python script&#45;&gt;xtas API</title>
<path fill="none" stroke="black" d="M89.5516,-45C98.1876,-45 107.229,-45 115.784,-45"/>
<polygon fill="black" stroke="black" points="115.919,-48.5001 125.919,-45 115.919,-41.5001 115.919,-48.5001"/>
</g>
<!-- xtas API&#45;&gt;q -->
<g id="edge2" class="edge"><title>xtas API&#45;&gt;q</title>
<path fill="none" stroke="black" d="M190.138,-45C197.997,-45 206.773,-45 215.761,-45"/>
<polygon fill="black" stroke="black" points="215.964,-48.5001 225.964,-45 215.964,-41.5001 215.964,-48.5001"/>
</g>
</g>
</svg>
