<?xml version="1.0" encoding="UTF-8" standalone="no"?>
<!DOCTYPE svg PUBLIC "-//W3C//DTD SVG 1.1//EN"
 "http://www.w3.org/Graphics/SVG/1.1/DTD/svg11.dtd">
<!-- Generated by graphviz version 2.36.0 (20140111.2315)
 -->
<!-- Title: %3 Pages: 1 -->
<svg width="594pt" height="98pt"
 viewBox="0.00 0.00 594.00 98.00" xmlns="http://www.w3.org/2000/svg" xmlns:xlink="http://www.w3.org/1999/xlink">
<g id="graph0" class="graph" transform="scale(1 1) rotate(0) translate(4 94)">
<title>%3</title>
<polygon fill="white" stroke="none" points="-4,4 -4,-94 590,-94 590,4 -4,4"/>
<!-- rest -->
<g id="node1" class="node"><title>rest</title>
<polygon fill="none" stroke="lightblue" points="291.5,-63 190.5,-63 190.5,-27 291.5,-27 291.5,-63"/>
<text text-anchor="middle" x="241" y="-41.3" font-family="Times,serif" font-size="14.00">xtas REST API</text>
</g>
<!-- q -->
<g id="node2" class="node"><title>q</title>
<polygon fill="none" stroke="lightblue" points="456,-63 328,-63 328,-27 456,-27 456,-63"/>
<text text-anchor="middle" x="392" y="-41.3" font-family="Times,serif" font-size="14.00">Task queue (Celery)</text>
</g>
<!-- rest&#45;&gt;q -->
<g id="edge2" class="edge"><title>rest&#45;&gt;q</title>
<path fill="none" stroke="black" d="M291.615,-45C299.951,-45 308.757,-45 317.543,-45"/>
<polygon fill="black" stroke="black" points="317.819,-48.5001 327.819,-45 317.819,-41.5001 317.819,-48.5001"/>
</g>
<!-- xtas worker 1 -->
<g id="node4" class="node"><title>xtas worker 1</title>
<polygon fill="none" stroke="lightblue" points="584.5,-90 493.5,-90 493.5,-54 584.5,-54 584.5,-90"/>
<text text-anchor="middle" x="539" y="-68.3" font-family="Times,serif" font-size="14.00">xtas worker 1</text>
</g>
<!-- q&#45;&gt;xtas worker 1 -->
<g id="edge3" class="edge"><title>q&#45;&gt;xtas worker 1</title>
<path fill="none" stroke="black" d="M456.177,-56.764C465.271,-58.4574 474.564,-60.1877 483.47,-61.8462"/>
<polygon fill="black" stroke="black" points="482.859,-65.2924 493.331,-63.6823 484.14,-58.4107 482.859,-65.2924"/>
</g>
<!-- xtas worker N -->
<g id="node5" class="node"><title>xtas worker N</title>
<polygon fill="none" stroke="lightblue" points="586,-36 492,-36 492,-0 586,-0 586,-36"/>
<text text-anchor="middle" x="539" y="-14.3" font-family="Times,serif" font-size="14.00">xtas worker N</text>
</g>
<!-- q&#45;&gt;xtas worker N -->
<g id="edge4" class="edge"><title>q&#45;&gt;xtas worker N</title>
<path fill="none" stroke="black" d="M456.177,-33.236C464.641,-31.6599 473.278,-30.0517 481.615,-28.4993"/>
<polygon fill="black" stroke="black" points="482.414,-31.9108 491.604,-26.6393 481.132,-25.0291 482.414,-31.9108"/>
</g>
<!-- Program in any language -->
<g id="node3" class="node"><title>Program in any language</title>
<polygon fill="none" stroke="lightblue" points="154,-63 0,-63 0,-27 154,-27 154,-63"/>
<text text-anchor="middle" x="77" y="-41.3" font-family="Times,serif" font-size="14.00">Program in any language</text>
</g>
<!-- Program in any language&#45;&gt;rest -->
<g id="edge1" class="edge"><title>Program in any language&#45;&gt;rest</title>
<path fill="none" stroke="black" d="M154.256,-45C163.008,-45 171.834,-45 180.323,-45"/>
<polygon fill="black" stroke="black" points="180.483,-48.5001 190.483,-45 180.483,-41.5001 180.483,-48.5001"/>
</g>
</g>
</svg>
