<?xml version="1.0" encoding="UTF-8" standalone="no"?>
<!DOCTYPE svg PUBLIC "-//W3C//DTD SVG 1.1//EN"
 "http://www.w3.org/Graphics/SVG/1.1/DTD/svg11.dtd">
<!-- Generated by graphviz version 2.36.0 (20140111.2315)
 -->
<!-- Title: %3 Pages: 1 -->
<svg width="512pt" height="98pt"
 viewBox="0.00 0.00 512.00 98.00" xmlns="http://www.w3.org/2000/svg" xmlns:xlink="http://www.w3.org/1999/xlink">
<g id="graph0" class="graph" transform="scale(1 1) rotate(0) translate(4 94)">
<title>%3</title>
<polygon fill="white" stroke="none" points="-4,4 -4,-94 508,-94 508,4 -4,4"/>
<!-- q -->
<g id="node1" class="node"><title>q</title>
<polygon fill="none" stroke="lightblue" points="376,-63 226,-63 226,-27 376,-27 376,-63"/>
<text text-anchor="middle" x="301" y="-41.3" font-family="Times,serif" font-size="14.00">Task queue (RabbitMQ)</text>
</g>
<!-- xtas worker 1 -->
<g id="node4" class="node"><title>xtas worker 1</title>
<polygon fill="none" stroke="lightblue" points="503.5,-90 412.5,-90 412.5,-54 503.5,-54 503.5,-90"/>
<text text-anchor="middle" x="458" y="-68.3" font-family="Times,serif" font-size="14.00">xtas worker 1</text>
</g>
<!-- q&#45;&gt;xtas worker 1 -->
<g id="edge3" class="edge"><title>q&#45;&gt;xtas worker 1</title>
<path fill="none" stroke="black" d="M376.322,-57.9464C385.049,-59.4667 393.831,-60.9963 402.222,-62.458"/>
<polygon fill="black" stroke="black" points="401.782,-65.934 412.234,-64.2021 402.983,-59.0378 401.782,-65.934"/>
</g>
<!-- xtas worker n -->
<g id="node5" class="node"><title>xtas worker n</title>
<polygon fill="none" stroke="lightblue" points="503.5,-36 412.5,-36 412.5,-0 503.5,-0 503.5,-36"/>
<text text-anchor="middle" x="458" y="-14.3" font-family="Times,serif" font-size="14.00">xtas worker n</text>
</g>
<!-- q&#45;&gt;xtas worker n -->
<g id="edge4" class="edge"><title>q&#45;&gt;xtas worker n</title>
<path fill="none" stroke="black" d="M376.322,-32.0536C385.049,-30.5333 393.831,-29.0037 402.222,-27.542"/>
<polygon fill="black" stroke="black" points="402.983,-30.9622 412.234,-25.7979 401.782,-24.066 402.983,-30.9622"/>
</g>
<!-- Python script -->
<g id="node2" class="node"><title>Python script</title>
<polygon fill="none" stroke="lightblue" points="89.5,-63 0.5,-63 0.5,-27 89.5,-27 89.5,-63"/>
<text text-anchor="middle" x="45" y="-41.3" font-family="Times,serif" font-size="14.00">Python script</text>
</g>
<!-- xtas API -->
<g id="node3" class="node"><title>xtas API</title>
<polygon fill="none" stroke="lightblue" points="190,-63 126,-63 126,-27 190,-27 190,-63"/>
<text text-anchor="middle" x="158" y="-41.3" font-family="Times,serif" font-size="14.00">xtas API</text>
</g>
<!-- Python script&#45;&gt;xtas API -->
<g id="edge1" class="edge"><title>Python script&#45;&gt;xtas API</title>
<path fill="none" stroke="black" d="M89.5516,-45C98.1876,-45 107.229,-45 115.784,-45"/>
<polygon fill="black" stroke="black" points="115.919,-48.5001 125.919,-45 115.919,-41.5001 115.919,-48.5001"/>
</g>
<!-- xtas API&#45;&gt;q -->
<g id="edge2" class="edge"><title>xtas API&#45;&gt;q</title>
<path fill="none" stroke="black" d="M190.292,-45C198.015,-45 206.657,-45 215.611,-45"/>
<polygon fill="black" stroke="black" points="215.819,-48.5001 225.819,-45 215.819,-41.5001 215.819,-48.5001"/>
</g>
</g>
</svg>
