<?xml version="1.0" encoding="UTF-8" standalone="no"?>
<!DOCTYPE svg PUBLIC "-//W3C//DTD SVG 1.1//EN"
 "http://www.w3.org/Graphics/SVG/1.1/DTD/svg11.dtd">
<!-- Generated by graphviz version 2.36.0 (20140111.2315)
 -->
<!-- Title: %3 Pages: 1 -->
<svg width="500pt" height="98pt"
 viewBox="0.00 0.00 500.00 98.00" xmlns="http://www.w3.org/2000/svg" xmlns:xlink="http://www.w3.org/1999/xlink">
<g id="graph0" class="graph" transform="scale(1 1) rotate(0) translate(4 94)">
<title>%3</title>
<polygon fill="white" stroke="none" points="-4,4 -4,-94 496,-94 496,4 -4,4"/>
<!-- rest -->
<g id="node1" class="node"><title>rest</title>
<polygon fill="none" stroke="lightblue" points="363.5,-63 190.5,-63 190.5,-27 363.5,-27 363.5,-63"/>
<text text-anchor="middle" x="277" y="-41.3" font-family="Times,serif" font-size="14.00">xtas web server (REST API)</text>
</g>
<!-- xtas worker 1 -->
<g id="node3" class="node"><title>xtas worker 1</title>
<polygon fill="none" stroke="lightblue" points="491.5,-90 400.5,-90 400.5,-54 491.5,-54 491.5,-90"/>
<text text-anchor="middle" x="446" y="-68.3" font-family="Times,serif" font-size="14.00">xtas worker 1</text>
</g>
<!-- rest&#45;&gt;xtas worker 1 -->
<g id="edge2" class="edge"><title>rest&#45;&gt;xtas worker 1</title>
<path fill="none" stroke="black" d="M363.946,-58.8955C372.923,-60.3469 381.863,-61.7922 390.349,-63.1642"/>
<polygon fill="black" stroke="black" points="390.017,-66.6559 400.448,-64.7969 391.134,-59.7457 390.017,-66.6559"/>
</g>
<!-- xtas worker n -->
<g id="node4" class="node"><title>xtas worker n</title>
<polygon fill="none" stroke="lightblue" points="491.5,-36 400.5,-36 400.5,-0 491.5,-0 491.5,-36"/>
<text text-anchor="middle" x="446" y="-14.3" font-family="Times,serif" font-size="14.00">xtas worker n</text>
</g>
<!-- rest&#45;&gt;xtas worker n -->
<g id="edge3" class="edge"><title>rest&#45;&gt;xtas worker n</title>
<path fill="none" stroke="black" d="M363.946,-31.1045C372.923,-29.6531 381.863,-28.2078 390.349,-26.8358"/>
<polygon fill="black" stroke="black" points="391.134,-30.2543 400.448,-25.2031 390.017,-23.3441 391.134,-30.2543"/>
</g>
<!-- Program in any language -->
<g id="node2" class="node"><title>Program in any language</title>
<polygon fill="none" stroke="lightblue" points="154,-63 0,-63 0,-27 154,-27 154,-63"/>
<text text-anchor="middle" x="77" y="-41.3" font-family="Times,serif" font-size="14.00">Program in any language</text>
</g>
<!-- Program in any language&#45;&gt;rest -->
<g id="edge1" class="edge"><title>Program in any language&#45;&gt;rest</title>
<path fill="none" stroke="black" d="M154.269,-45C162.725,-45 171.416,-45 180.075,-45"/>
<polygon fill="black" stroke="black" points="180.209,-48.5001 190.209,-45 180.209,-41.5001 180.209,-48.5001"/>
</g>
</g>
</svg>
